<?xml version="1.0" standalone="no"?>
<!DOCTYPE svg PUBLIC "-//W3C//DTD SVG 20010904//EN"
 "http://www.w3.org/TR/2001/REC-SVG-20010904/DTD/svg10.dtd">
<svg version="1.0" xmlns="http://www.w3.org/2000/svg"
 width="471.000000pt" height="471.000000pt" viewBox="0 0 471.000000 471.000000"
 preserveAspectRatio="xMidYMid meet">
<metadata>
Created by potrace 1.14, written by Peter Selinger 2001-2017
</metadata>
<g transform="translate(0.000000,471.000000) scale(0.100000,-0.100000)"
fill="#000000" stroke="none">
<path d="M2152 4238 c-122 -172 -227 -321 -234 -331 -13 -17 -27 -13 -251 69
-131 48 -240 84 -243 82 -3 -3 15 -225 40 -494 l45 -489 -27 -20 c-15 -11 -63
-51 -106 -89 l-79 -70 -141 150 c-77 82 -175 184 -216 227 l-76 79 -64 -269
c-35 -147 -66 -272 -70 -276 -4 -4 -135 -17 -291 -28 -156 -11 -298 -22 -315
-25 l-31 -4 132 -335 133 -334 -156 -155 c-87 -85 -168 -163 -181 -173 l-24
-19 54 -46 c30 -24 275 -224 544 -443 270 -219 494 -401 498 -405 4 -4 -48
-156 -117 -339 -69 -182 -126 -334 -126 -336 0 -3 287 -5 638 -5 l637 1 57
119 57 120 149 0 150 0 49 -117 50 -118 622 -3 c497 -2 622 0 618 10 -24 66
-227 651 -227 657 0 4 239 214 530 465 292 252 530 464 530 471 0 8 -78 85
-172 171 -95 86 -174 160 -176 164 -2 5 58 149 133 320 75 172 134 314 132
317 -3 2 -148 19 -322 38 -175 19 -319 36 -320 37 -2 2 -27 119 -56 261 -29
141 -55 257 -58 257 -3 0 -104 -85 -225 -189 l-218 -190 -89 72 -90 72 7 80
c16 217 60 880 58 883 -2 3 -450 -129 -490 -145 -8 -3 -86 107 -225 316 -116
177 -215 321 -219 321 -4 0 -107 -141 -228 -312z m84 -1490 c82 -87 151 -158
154 -158 3 0 129 130 280 289 151 158 276 287 278 286 2 -2 -121 -290 -273
-640 -152 -350 -275 -638 -273 -639 1 -2 291 122 643 275 351 153 640 277 641
276 1 -1 -130 -128 -292 -282 l-294 -279 22 -22 c13 -12 133 -126 268 -254
135 -128 259 -246 275 -262 l30 -29 -65 28 c-36 15 -326 141 -645 279 -319
139 -581 251 -583 249 -2 -2 121 -289 272 -638 152 -349 276 -637 276 -641 0
-3 -125 125 -277 284 -152 160 -279 290 -282 290 -3 0 -130 -130 -281 -289
-151 -159 -276 -288 -278 -286 -1 1 121 287 273 636 151 348 274 636 273 640
-2 3 -291 -119 -643 -272 -352 -153 -641 -279 -642 -279 -4 0 194 191 410 395
l178 169 -58 57 c-32 31 -165 158 -295 283 -130 124 -236 226 -235 226 1 0
290 -125 642 -278 352 -153 641 -276 643 -272 1 3 -122 291 -273 639 -151 348
-275 635 -275 638 0 5 121 -119 406 -419z"/>
</g>
</svg>
