<?xml version="1.0" encoding="utf-8"?>
<!-- Generator: Adobe Illustrator 15.0.2, SVG Export Plug-In . SVG Version: 6.00 Build 0)  -->
<!DOCTYPE svg PUBLIC "-//W3C//DTD SVG 1.1//EN" "http://www.w3.org/Graphics/SVG/1.1/DTD/svg11.dtd">
<svg version="1.1" id="Layer_1" xmlns="http://www.w3.org/2000/svg" xmlns:xlink="http://www.w3.org/1999/xlink" x="0px" y="0px"
	 width="122px" height="63px" viewBox="0 0 122 63" enable-background="new 0 0 122 63" xml:space="preserve">
<path fill="white" d="M1.331,56.35l0.042,1.251c0.442,0.654,1.55,1.095,2.29,1.095c1.208,0,2.231-0.64,2.231-1.934
	c0-0.611-0.355-1.322-1.321-1.493l-1.395-0.241c-1.69-0.299-2.529-1.323-2.529-2.546c0-2.275,1.69-3.142,3.753-3.142
	c0.881,0,1.749,0.128,2.658,0.498l0.057,0.171c-0.142,0.653-0.156,1.35-0.199,2.032h-0.64L6.25,50.904
	c-0.426-0.54-1.222-0.782-1.891-0.782c-1.181,0-2.033,0.711-2.033,1.664c0,1.108,0.754,1.336,1.664,1.493l1.151,0.212
	c1.593,0.3,2.544,1.18,2.544,2.546c0,1.422-0.738,2.574-2.26,3.156c-0.44,0.171-1.436,0.27-1.906,0.27
	c-1.022,0-2.062-0.213-2.971-0.696c0.17-0.796,0.213-1.607,0.213-2.417H1.331"/>
<path fill="white" d="M9.249,53.975H8.34v-0.256c0.327-0.17,0.625-0.341,0.938-0.611c0.027-0.597,0.027-1.337-0.058-2.161
	c0.626-0.228,1.336-0.484,1.734-0.711l0.199,0.142c-0.015,0.128-0.028,0.256-0.042,0.384l-0.128,2.332h1.621l-0.114,0.881h-1.507
	v3.384c0.015,0.654,0.185,0.925,0.882,0.925c0.298,0,0.383-0.058,0.653-0.185l0.113,0.27c-0.227,0.227-0.439,0.483-0.64,0.753
	l-0.171,0.214c-0.213,0.056-0.54,0.127-0.753,0.127c-0.526,0-1.123-0.099-1.479-0.512c-0.355-0.398-0.342-0.781-0.342-1.293V53.975"
	/>
<path fill="white" d="M13.029,58.311c0-0.597,0.525-1.137,1.108-1.137c0.582,0,1.109,0.526,1.109,1.11c0,0.568-0.512,1.108-1.095,1.108
	C13.555,59.392,13.029,58.909,13.029,58.311"/>
<path fill="white" d="M21.038,51.23c-0.014-1.024-0.071-1.137-1.208-1.109v-0.597c0.938,0.042,1.663,0.071,2.218,0.071s1.265-0.029,2.203-0.071
	v0.611c-1.151-0.042-1.208,0.071-1.208,1.095v6.057c0.014,1.35,0.014,2.261-0.811,3.412c-0.568,0.796-1.99,1.863-3.114,1.493v-1.266
	l0.158-0.085c0.298,0.214,0.582,0.498,0.979,0.498c0.74,0,0.682-0.683,0.726-1.223c0.043-0.568,0.057-1.138,0.057-1.692V51.23"/>
<path fill="white" d="M24.39,56.022c0-2.204,1.209-3.498,3.484-3.498c2.175,0,3.298,1.208,3.298,3.327c0,2.289-1.237,3.611-3.597,3.611
	C25.386,59.462,24.39,58.028,24.39,56.022 M26.324,55.681c0,1.038,0.099,3.114,1.563,3.114c1.251,0,1.352-1.45,1.352-2.36
	c0-0.555-0.059-1.407-0.199-1.948c-0.187-0.668-0.512-1.223-1.294-1.223C26.409,53.264,26.324,54.686,26.324,55.681z"/>
<path fill="white" d="M32.651,51.003c-0.029-0.91-0.085-0.882-1.081-0.925v-0.512c0.91-0.099,1.819-0.227,2.645-0.583l0.171,0.072v4.706
	l1.421-1.109c0.242-0.072,0.513-0.128,0.769-0.128c0.683,0,1.379,0.199,1.763,0.811c0.384,0.611,0.327,1.123,0.327,1.82v2.658
	c0.029,0.91,0.085,0.882,0.981,0.925v0.554c-0.513-0.043-0.938-0.072-1.394-0.072c-0.44,0-0.881,0.029-1.323,0.072v-3.512
	c-0.042-0.441-0.014-0.924-0.184-1.337c-0.199-0.44-0.598-0.696-1.067-0.696c-0.639,0-1.065,0.326-1.293,0.952v3.114
	c0.028,0.91,0.085,0.882,1.095,0.925v0.554c-0.696-0.043-1.295-0.072-1.92-0.072c-0.611,0-1.223,0.029-1.92,0.072v-0.554
	c0.926-0.043,0.981-0.015,1.011-0.925V51.003"/>
<path fill="white" d="M41.024,54.516c-0.028-0.91-0.085-0.882-1.01-0.925v-0.512c0.541-0.07,1.081-0.128,1.607-0.298l1.022-0.256l0.114,0.014
	v1.166l1.422-1.052c0.242-0.072,0.512-0.128,0.769-0.128c0.682,0,1.379,0.199,1.762,0.811c0.385,0.611,0.327,1.123,0.327,1.82v2.658
	c0.029,0.91,0.086,0.882,0.981,0.925v0.554c-0.512-0.043-0.938-0.072-1.393-0.072c-0.442,0-0.882,0.029-1.323,0.072v-3.512
	c-0.042-0.441-0.014-0.924-0.185-1.337c-0.199-0.44-0.597-0.696-1.066-0.696c-0.64,0-1.066,0.326-1.294,0.952v3.114
	c0.028,0.91,0.085,0.882,1.095,0.925v0.554c-0.696-0.043-1.294-0.072-1.92-0.072c-0.61,0-1.223,0.029-1.919,0.072v-0.554
	c0.925-0.043,0.981-0.015,1.01-0.925V54.516"/>
<path fill="white" d="M54.148,56.292l-0.641,1.919c-0.143,0.412,0.811,0.427,1.095,0.512v0.569c-0.683-0.043-1.194-0.072-1.606-0.072
	s-0.924,0.029-1.606,0.072v-0.612c0.283,0,0.568-0.028,0.81-0.17c0.371-0.384,0.526-0.91,0.726-1.38l2.246-5.516l0.37-0.981
	l0.242-0.583l0.213-0.583h1.009l3.683,8.602c0.242,0.554,0.369,0.541,0.953,0.611h0.172v0.612c-0.953-0.043-1.65-0.072-2.205-0.072
	s-1.266,0.029-2.203,0.072v-0.569c0.383-0.085,1.251-0.028,1.065-0.512l-0.753-1.919H54.148 M54.489,55.496h2.9l-1.479-3.611
	L54.489,55.496z"/>
<path fill="white" d="M63.12,54.516c-0.029-0.91-0.086-0.882-1.01-0.925v-0.512c0.54-0.07,1.08-0.128,1.605-0.298l1.025-0.256l0.111,0.014v1.166
	l1.423-1.081c0.257-0.056,0.513-0.099,0.768-0.099c0.854,0,1.565,0.355,1.862,1.194l1.494-1.123
	c0.198-0.015,0.397-0.071,0.597-0.071c1.605,0,2.077,0.924,2.077,1.891v3.398c0.025,0.91,0.084,0.882,0.979,0.925v0.554
	c-0.512-0.043-0.937-0.072-1.392-0.072c-0.44,0-0.883,0.029-1.323,0.072v-3.867c0-0.242-0.014-0.583-0.1-0.925
	c-0.1-0.398-0.44-0.753-1.053-0.753c-0.652,0-1.222,0.583-1.222,0.923v3.143c0.028,0.91,0.084,0.882,1.094,0.925v0.554
	c-0.696-0.043-1.292-0.072-1.919-0.072c-0.61,0-1.222,0.029-1.918,0.072v-0.554c0.923-0.043,0.98-0.015,1.007-0.925v-2.73
	c0-0.796-0.254-1.336-1.15-1.336c-0.696,0-1.224,0.554-1.224,0.839v3.227c0.029,0.91,0.088,0.882,0.954,0.925v0.554
	c-0.669-0.043-1.252-0.072-1.849-0.072c-0.583,0-1.181,0.029-1.848,0.072v-0.554c0.924-0.043,0.98-0.015,1.01-0.925V54.516"/>
<path fill="white" d="M75.012,51.018c-0.028-0.91-0.086-0.882-1.082-0.924v-0.513c0.911-0.099,1.82-0.227,2.646-0.583l0.172,0.071v4.693
	c0.838-0.697,1.15-1.223,2.346-1.223c1.506,0,2.56,1.152,2.56,2.645c0,0.625-0.143,1.279-0.413,1.848
	c-0.256,0.569-0.569,0.896-1.08,1.223l-0.967,0.682l-0.598,0.356c-0.327,0.113-0.683,0.184-1.038,0.184
	c-0.711,0-1.308-0.241-1.707-0.526l-0.652,0.455l-0.313-0.113c0.086-0.654,0.1-1.792,0.128-2.361V51.018 M76.747,57.729
	c0.327,0.497,0.852,0.782,1.45,0.782c1.321,0,1.663-1.422,1.663-2.489c0-1.137-0.498-2.204-1.778-2.204
	c-0.512,0-1.079,0.271-1.335,0.711V57.729z"/>
<path fill="white" d="M86.008,59.321c-0.326,0.085-0.652,0.17-0.995,0.17c-0.341,0-0.555-0.057-0.882-0.156c-0.682-0.213-1.081-0.853-1.081-2.076
	v-2.616c-0.026-0.91-0.084-0.882-1.037-0.924v-0.526c0.555-0.057,1.095-0.1,1.622-0.271l1.122-0.369l0.059,0.142
	c0.042,0.142-0.03,0.369-0.03,0.569v3.085c0,0.925-0.043,1.863,1.152,1.863c0.482,0,0.966-0.299,1.193-0.726
	c0.101-0.155,0.129-0.369,0.129-0.554v-2.289c-0.028-0.91-0.085-0.882-1.066-0.924v-0.512c0.554-0.043,1.094-0.1,1.634-0.27
	l1.139-0.384c0.042,0.028,0.142,0.099,0.142,0.113c-0.07,0.398-0.112,0.725-0.112,1.11v4.066c0.028,0.91,0.085,0.882,0.979,0.924
	v0.555c-0.512-0.043-0.937-0.072-1.392-0.072c-0.441,0-0.882,0.029-1.322,0.072v-1.137L86.008,59.321"/>
<path fill="white" d="M91.48,51.031c-0.028-0.91-0.084-0.881-1.08-0.924v-0.511c0.909-0.1,1.819-0.228,2.645-0.583l0.171,0.07
	c0.057,0.143,0.057,0.256,0.043,0.356l-0.043,1.223v7.18c0.029,0.91,0.084,0.882,1.094,0.924v0.555
	c-0.695-0.043-1.292-0.072-1.918-0.072c-0.611,0-1.223,0.029-1.919,0.072v-0.555c0.924-0.042,0.979-0.014,1.008-0.924V51.031"/>
<path fill="white" d="M97.081,59.392c-0.213,0.029-0.413,0.071-0.626,0.071c-1.053,0-1.578-0.697-1.578-1.707c0-0.554,0.171-1.18,0.653-1.507
	c0.542-0.327,1.168-0.511,1.777-0.653l1.237-0.257c0.043-0.995-0.397-1.677-1.464-1.677c-0.242,0-0.569,0.042-0.796,0.199
	l-0.313,0.711l-0.47-0.1l0.043-0.924l1.62-0.924c0.229-0.043,0.456-0.071,0.684-0.071c1.351,0,2.445,0.554,2.445,2.076v3.227
	c0,0.896,0.085,0.868,0.812,0.91v0.555c-0.455-0.043-0.841-0.072-1.253-0.072c-0.397,0-0.795,0.029-1.308,0.072v-1.024
	c-0.397,0.284-0.782,0.569-1.166,0.867L97.081,59.392 M98.545,55.937l-0.625,0.17c-0.755,0.228-1.322,0.37-1.322,1.294
	c0,0.597,0.355,0.853,0.781,0.853s1.011-0.37,1.166-0.64V55.937z"/>
<path fill="white" d="M102.413,54.542c-0.028-0.909-0.085-0.881-1.008-0.924v-0.512c0.54-0.071,1.08-0.128,1.604-0.298l1.025-0.256l0.114,0.014
	v1.166l1.421-1.052c0.242-0.071,0.512-0.128,0.767-0.128c0.683,0,1.381,0.199,1.764,0.811c0.385,0.61,0.327,1.122,0.327,1.819v2.659
	c0.029,0.91,0.084,0.882,0.982,0.924v0.555c-0.512-0.043-0.94-0.072-1.395-0.072c-0.44,0-0.882,0.029-1.322,0.072v-3.512
	c-0.043-0.441-0.015-0.925-0.186-1.337c-0.198-0.441-0.596-0.696-1.065-0.696c-0.641,0-1.067,0.327-1.293,0.952v3.114
	c0.027,0.91,0.084,0.882,1.094,0.924v0.555c-0.696-0.043-1.293-0.072-1.919-0.072c-0.611,0-1.225,0.029-1.919,0.072v-0.555
	c0.923-0.042,0.979-0.014,1.008-0.924V54.542"/>
<path fill="white" d="M112.018,53.103c0.343-0.214,0.825-0.327,1.223-0.327c0.584,0,0.996,0.099,1.536,0.327l0.071,0.128l-0.016,0.099
	c-0.112,0.541-0.17,1.194-0.227,1.962h-0.556c0-0.171-0.026-0.327-0.043-0.497l-0.055-0.399c-0.199-0.398-0.782-0.554-1.18-0.554
	c-1.279,0-1.466,0.896-1.466,1.947c0,1.465,0.611,2.915,2.304,2.915c0.37,0,0.738-0.085,1.166-0.27l0.129,0.142l-0.3,0.655
	c-0.556,0.313-1.208,0.483-1.849,0.483c-1.621,0-2.729-0.91-3.114-2.175c-0.085-0.285-0.098-0.853-0.098-1.152
	c0-1.294,0.425-2.048,1.35-2.602L112.018,53.103"/>
<path fill="white" d="M117.263,56.302c0.129,1.379,0.84,2.374,2.318,2.374c0.468,0,1.08-0.199,1.536-0.47l0.17,0.214l-0.313,0.683
	c-0.853,0.455-1.437,0.611-2.274,0.611c-2.076,0-3.228-1.251-3.228-3.285c0-0.668,0.071-1.236,0.298-1.848
	c0.2-0.555,0.782-0.896,1.266-1.194c0.656-0.412,0.995-0.611,1.792-0.611c1.976,0,2.772,1.436,2.603,3.241l-0.769,0.157
	L117.263,56.302 M118.457,53.572c-1.053,0-1.294,1.137-1.222,1.976c0.412,0.043,0.824,0.057,1.236,0.057
	c0.384,0,0.769-0.029,1.151-0.043C119.652,54.766,119.51,53.572,118.457,53.572z"/>
<polyline fill="#FFFFFF" points="60.565,1.106 64.63,7.456 69.162,5.767 68.423,14.789 70.46,16.417 74.36,12.507 75.349,17.64 
	81.345,17.873 78.607,24.042 82.099,27.069 71.862,35.328 74.302,41.387 63.359,41.387 62.428,38.826 58.702,38.826 57.772,41.387 
	46.829,41.387 49.267,35.328 39.03,27.069 42.347,24.217 39.787,17.873 45.606,17.705 46.771,12.507 50.67,16.417 52.708,14.789 
	52.067,5.767 56.5,7.456 60.565,1.106 "/>
<polyline fill="#E40520" points="60.565,1.106 64.63,7.456 69.162,5.767 68.423,14.789 70.46,16.417 74.36,12.507 75.349,17.64 
	81.345,17.873 78.607,24.042 82.099,27.069 71.862,35.328 74.302,41.387 63.359,41.387 62.428,38.826 58.702,38.826 57.772,41.387 
	46.829,41.387 49.267,35.328 39.03,27.069 42.347,24.217 39.787,17.873 45.606,17.705 46.771,12.507 50.67,16.417 52.708,14.789 
	52.067,5.767 56.5,7.456 60.565,1.106 "/>
<polygon fill="none" stroke="#000000" stroke-width="0.75" stroke-linecap="round" stroke-linejoin="round" points="60.565,1.106 
	64.63,7.456 69.162,5.767 68.423,14.789 70.46,16.417 74.36,12.507 75.349,17.64 81.345,17.873 78.607,24.042 82.099,27.069 
	71.862,35.328 74.302,41.387 63.359,41.387 62.428,38.826 58.702,38.826 57.772,41.387 46.829,41.387 49.267,35.328 39.03,27.069 
	42.347,24.217 39.787,17.873 45.606,17.705 46.771,12.507 50.67,16.417 52.708,14.789 52.067,5.767 56.5,7.456 "/>
<path d="M60.543,39.307c7.655,0,13.862-5.863,13.862-13.518c0-7.655-6.207-13.518-13.862-13.518s-13.86,5.863-13.86,13.518
	C46.683,33.444,52.888,39.307,60.543,39.307"/>
<path fill="none" stroke="#000000" stroke-width="0.3" d="M60.543,39.307c7.655,0,13.862-5.863,13.862-13.518
	c0-7.655-6.207-13.518-13.862-13.518s-13.86,5.863-13.86,13.518C46.683,33.444,52.888,39.307,60.543,39.307z"/>
<polyline fill="#FFFFFF" points="60.543,18.559 65.288,14.415 60.964,25.368 72.27,21.363 67.774,25.789 72.2,30.637 60.964,26.209 
	65.323,37.208 65.323,37.242 60.543,33.019 55.67,37.345 60.122,26.209 48.895,30.637 53.314,25.789 48.758,21.431 60.122,25.368 
	55.739,14.415 60.543,18.559 "/>
<polyline fill="white" points="75.927,39.124 78.023,39.124 78.023,39.431 77.153,39.431 77.153,41.706 76.798,41.706 76.798,39.431 
	75.927,39.431 75.927,39.124 "/>
<path fill="white" d="M78.333,41.706v-2.582h0.502l0.74,2.183l0.737-2.183h0.495v2.582h-0.333v-1.524c0-0.053,0.002-0.14,0.006-0.261
	c0.002-0.122,0.002-0.253,0.002-0.392l-0.734,2.177h-0.349l-0.741-2.177v0.078c0,0.064,0.002,0.16,0.004,0.289
	c0.004,0.13,0.005,0.225,0.005,0.286v1.524H78.333"/>
</svg>
