<?xml version="1.0" encoding="utf-8"?>
<svg viewBox="0 0 99.999997 100.00282" xmlns="http://www.w3.org/2000/svg">
  <g id="layer1" transform="matrix(1, 0, 0, 1, 313.762756, -448.265503)">
    <g style="display:inline" id="g124426" transform="matrix(3.1435324,0,0,3.1435324,-2623.9096,-67.523568)">
      <g transform="translate(653.61624,9.8860729)" id="g123824">
        <g id="g123826">
          <path id="path123828" d="m 97.180214,154.29338 a 0.3334732,0.3334732 0 0 0 -0.164063,0.043 c -0.584836,0.32371 -1.135052,0.85225 -1.517578,1.49414 -0.382526,0.6419 -0.597269,1.40967 -0.433594,2.17774 l 0.06055,0.42383 c -0.544844,-0.68854 -1.284189,-1.19716 -1.992187,-1.38477 a 0.3334732,0.3334732 0 0 0 -0.347657,0.11523 c -0.651369,0.82075 -0.994143,2.19195 -0.611328,3.42188 -0.732532,-0.55519 -1.614271,-0.8651 -2.355468,-0.85156 a 0.3334732,0.3334732 0 0 0 -0.310547,0.22851 c -0.245199,0.73327 -0.207391,1.71848 0.144531,2.61328 -0.894802,-0.35192 -1.880013,-0.38973 -2.613281,-0.14453 a 0.3334732,0.3334732 0 0 0 -0.228516,0.31055 c -0.01355,0.7412 0.296367,1.62294 0.851563,2.35547 -1.229933,-0.38282 -2.601134,-0.04 -3.421875,0.61133 a 0.3334732,0.3334732 0 0 0 -0.115235,0.34765 c 0.187916,0.70916 0.698333,1.44914 1.388672,1.99414 l -0.427734,-0.0606 c -0.767915,-0.16364 -1.533847,0.0496 -2.175782,0.43164 -0.641934,0.38202 -1.172339,0.93267 -1.496093,1.51758 a 0.3334732,0.3334732 0 0 0 0,0.32422 c 0.323712,0.58483 0.852246,1.13505 1.49414,1.51758 0.641895,0.38252 1.409667,0.59726 2.177735,0.43359 l 0.423828,-0.0606 c -0.68854,0.54485 -1.197157,1.2842 -1.384766,1.99219 a 0.3334732,0.3334732 0 0 0 0.115235,0.34766 c 0.820742,0.65138 2.191943,0.99414 3.421875,0.61133 -0.555195,0.73253 -0.865108,1.61426 -0.851563,2.35546 a 0.3334732,0.3334732 0 0 0 0.228516,0.31055 c 0.733271,0.24521 1.718479,0.2074 2.613281,-0.14453 -0.351921,0.8948 -0.38973,1.88001 -0.144531,2.61328 a 0.3334732,0.3334732 0 0 0 0.310547,0.22852 c 0.74121,0.0136 1.622937,-0.29636 2.355468,-0.85157 -0.382817,1.22993 -0.04004,2.60113 0.611328,3.42188 a 0.3334732,0.3334732 0 0 0 0.347657,0.11523 c 0.707996,-0.18761 1.447342,-0.69622 1.992187,-1.38476 l -0.06055,0.42383 c -0.163675,0.76806 0.05107,1.53583 0.433594,2.17773 0.382526,0.6419 0.932742,1.17043 1.517578,1.49414 a 0.3334732,0.3334732 0 0 0 0.324219,0 c 0.58491,-0.32375 1.13556,-0.85416 1.517578,-1.49609 0.382018,-0.64194 0.595285,-1.40787 0.431641,-2.17578 l -0.06055,-0.42774 c 0.545002,0.69034 1.284991,1.20076 1.994141,1.38867 a 0.3334732,0.3334732 0 0 0 0.34766,-0.11523 c 0.65137,-0.82075 0.99414,-2.19195 0.61132,-3.42188 0.73254,0.5552 1.61428,0.8651 2.35547,0.85157 a 0.3334732,0.3334732 0 0 0 0.31055,-0.22852 c 0.2452,-0.73327 0.20739,-1.71848 -0.14453,-2.61328 0.8948,0.35192 1.88001,0.38973 2.61328,0.14453 a 0.3334732,0.3334732 0 0 0 0.22852,-0.31055 c 0.0135,-0.7412 -0.29637,-1.62293 -0.85157,-2.35546 1.22993,0.38281 2.60114,0.04 3.42188,-0.61133 a 0.3334732,0.3334732 0 0 0 0.11523,-0.34766 c -0.18761,-0.70799 -0.69622,-1.44734 -1.38476,-1.99219 l 0.42382,0.0606 c 0.76807,0.16367 1.53584,-0.0511 2.17774,-0.43359 0.64189,-0.38253 1.17043,-0.93275 1.49414,-1.51758 a 0.3334732,0.3334732 0 0 0 0,-0.32422 c -0.32371,-0.58511 -0.85413,-1.13559 -1.49609,-1.51757 -0.64196,-0.38199 -1.40789,-0.59529 -2.17578,-0.43165 l -0.42774,0.0606 c 0.69034,-0.54501 1.20076,-1.28499 1.38867,-1.99414 a 0.3334732,0.3334732 0 0 0 -0.11523,-0.34766 c -0.82074,-0.65137 -2.19194,-0.99415 -3.42187,-0.61133 0.55519,-0.73253 0.8651,-1.61427 0.85156,-2.35547 a 0.3334732,0.3334732 0 0 0 -0.22852,-0.31054 c -0.73327,-0.2452 -1.71848,-0.2074 -2.61328,0.14453 0.35192,-0.8948 0.38973,-1.88001 0.14453,-2.61328 a 0.3334732,0.3334732 0 0 0 -0.31054,-0.22852 c -0.7412,-0.0135 -1.62294,0.29637 -2.35547,0.85156 0.38281,-1.22993 0.04,-2.60113 -0.61133,-3.42187 a 0.3334732,0.3334732 0 0 0 -0.34766,-0.11524 c -0.70915,0.18792 -1.449137,0.69834 -1.994138,1.38867 l 0.06055,-0.42773 c 0.163644,-0.76792 -0.04962,-1.53385 -0.431641,-2.17578 -0.382018,-0.64194 -0.932668,-1.17234 -1.517578,-1.49609 a 0.3334732,0.3334732 0 0 0 -0.160156,-0.043 z" style="fill-opacity: 1; fill-rule: evenodd; stroke-width: 0.2; stroke-linecap: butt; stroke-linejoin: miter; stroke-miterlimit: 4; stroke-dasharray: none; stroke-opacity: 1; paint-order: stroke markers; stroke: rgb(154, 154, 154);"/>
          <g style="stroke-width:0.3935726;stroke-miterlimit:4;stroke-dasharray:none" transform="matrix(0.50816547,0,0,0.50816547,45.531101,90.002008)" id="g123830">
            <g style="stroke-width:0.3935726;stroke-miterlimit:4;stroke-dasharray:none" id="g123832">
              <path style="fill-opacity: 1; fill-rule: evenodd; stroke-width: 0.393573; stroke-linecap: butt; stroke-linejoin: miter; stroke-miterlimit: 4; stroke-dasharray: none; stroke-opacity: 1; paint-order: stroke markers; stroke: rgb(154, 154, 154);" d="m 92.73415,139.69838 9.20992,18.2996 -3.55968,-20.17488 c -0.377273,-2.63642 -2.855651,-4.71753 -4.88011,-5.25398 -1.301946,1.64048 -2.044122,4.79048 -0.77013,7.12926 z" id="path123834"/>
              <path style="fill-opacity: 1; fill-rule: evenodd; stroke-width: 0.393573; stroke-linecap: butt; stroke-linejoin: miter; stroke-miterlimit: 4; stroke-dasharray: none; stroke-opacity: 1; paint-order: stroke markers; stroke: rgb(154, 154, 154);" d="m 88.801426,144.77111 12.981094,13.02103 -8.531259,-16.28723 c -1.198738,-2.37338 -4.09857,-3.66549 -6.087428,-3.62915 -0.630837,1.88652 -0.267348,5.04033 1.637593,6.89535 z" id="path123836"/>
              <path id="path123838" d="m 110.53492,139.69838 -9.20992,18.2996 3.55968,-20.17488 c 0.37728,-2.63642 2.85566,-4.71753 4.88011,-5.25398 1.30195,1.64048 2.04413,4.79048 0.77013,7.12926 z" style="fill-opacity: 1; fill-rule: evenodd; stroke-width: 0.393573; stroke-linecap: butt; stroke-linejoin: miter; stroke-miterlimit: 4; stroke-dasharray: none; stroke-opacity: 1; paint-order: stroke markers; stroke: rgb(154, 154, 154);"/>
              <path id="path123840" d="m 114.46765,144.77111 -12.9811,13.02103 8.53125,-16.28723 c 1.19874,-2.37338 4.09858,-3.66549 6.08743,-3.62915 0.63084,1.88652 0.26736,5.04033 -1.63758,6.89535 z" style="fill-opacity: 1; fill-rule: evenodd; stroke-width: 0.393573; stroke-linecap: butt; stroke-linejoin: miter; stroke-miterlimit: 4; stroke-dasharray: none; stroke-opacity: 1; paint-order: stroke markers; stroke: rgb(154, 154, 154);"/>
              <g style="stroke-width:0.3935726;stroke-miterlimit:4;stroke-dasharray:none" transform="matrix(-1,0,0,1,203.26907,0)" id="g123842">
                <path style="fill-opacity: 1; fill-rule: evenodd; stroke-width: 0.393573; stroke-linecap: butt; stroke-linejoin: miter; stroke-miterlimit: 4; stroke-dasharray: none; stroke-opacity: 1; paint-order: stroke markers; stroke: rgb(154, 154, 154);" d="m 98.11956,133.6875 3.51497,24.44757 3.51498,-24.44757 c 0.55784,-2.61773 -1.44564,-5.3701 -3.51498,-6.5155 -2.06933,1.1454 -4.072813,3.89777 -3.51497,6.5155 z" id="path123844"/>
                <path style="fill-opacity: 1; fill-rule: evenodd; stroke-width: 0.393573; stroke-linecap: butt; stroke-linejoin: miter; stroke-miterlimit: 4; stroke-dasharray: none; stroke-opacity: 1; paint-order: stroke markers; stroke: rgb(154, 154, 154);" d="m 101.63453,127.172 c -2.06933,1.1454 -4.072813,3.89777 -3.51497,6.5155 l 3.51497,24.44757 z" id="path123846"/>
                <path style="fill-opacity: 1; fill-rule: evenodd; stroke-width: 0.393573; stroke-linecap: butt; stroke-linejoin: miter; stroke-miterlimit: 4; stroke-dasharray: none; stroke-opacity: 1; paint-order: stroke markers; stroke: rgb(154, 154, 154);" d="m 98.11956,133.6875 3.51497,24.44757 3.51498,-24.44757 c 0.55784,-2.61773 -1.44564,-5.3701 -3.51498,-6.5155 -2.06933,1.1454 -4.072813,3.89777 -3.51497,6.5155 z" id="path123848"/>
              </g>
              <path style="fill-opacity: 1; fill-rule: evenodd; stroke-width: 0.393573; stroke-linecap: butt; stroke-linejoin: miter; stroke-miterlimit: 4; stroke-dasharray: none; stroke-opacity: 1; paint-order: stroke markers; stroke: rgb(154, 154, 154);" d="M 101.94407,157.99798 98.38439,137.8231 c -0.377273,-2.63642 -2.855651,-4.71753 -4.88011,-5.25398 z" id="path123850"/>
              <path style="fill-opacity: 1; fill-rule: evenodd; stroke-width: 0.393573; stroke-linecap: butt; stroke-linejoin: miter; stroke-miterlimit: 4; stroke-dasharray: none; stroke-opacity: 1; paint-order: stroke markers; stroke: rgb(154, 154, 154);" d="m 101.78252,157.79214 -8.531259,-16.28723 c -1.198738,-2.37338 -4.09857,-3.66549 -6.087428,-3.62915 z" id="path123852"/>
              <path id="path123854" d="m 109.76479,132.56912 c 1.30195,1.64048 2.04413,4.79048 0.77013,7.12926 l -9.20992,18.2996 z" style="fill-opacity: 1; fill-rule: evenodd; stroke-width: 0.393573; stroke-linecap: butt; stroke-linejoin: miter; stroke-miterlimit: 4; stroke-dasharray: none; stroke-opacity: 1; paint-order: stroke markers; stroke: rgb(154, 154, 154);"/>
              <path id="path123856" d="m 116.10523,137.87576 c 0.63084,1.88652 0.26736,5.04033 -1.63758,6.89535 l -12.9811,13.02103 z" style="fill-opacity: 1; fill-rule: evenodd; stroke-width: 0.393573; stroke-linecap: butt; stroke-linejoin: miter; stroke-miterlimit: 4; stroke-dasharray: none; stroke-opacity: 1; paint-order: stroke markers; stroke: rgb(154, 154, 154);"/>
              <path style="fill-opacity: 1; fill-rule: evenodd; stroke-width: 0.393573; stroke-linecap: butt; stroke-linejoin: miter; stroke-miterlimit: 4; stroke-dasharray: none; stroke-opacity: 1; paint-order: stroke markers; stroke: rgb(154, 154, 154);" d="m 92.73415,139.69838 9.20992,18.2996 -3.55968,-20.17488 c -0.377273,-2.63642 -2.855651,-4.71753 -4.88011,-5.25398 -1.301946,1.64048 -2.044122,4.79048 -0.77013,7.12926 z" id="path123858"/>
              <path style="fill-opacity: 1; fill-rule: evenodd; stroke-width: 0.393573; stroke-linecap: butt; stroke-linejoin: miter; stroke-miterlimit: 4; stroke-dasharray: none; stroke-opacity: 1; paint-order: stroke markers; stroke: rgb(154, 154, 154);" d="m 88.801426,144.77111 12.981094,13.02103 -8.531259,-16.28723 c -1.198738,-2.37338 -4.09857,-3.66549 -6.087428,-3.62915 -0.630837,1.88652 -0.267348,5.04033 1.637593,6.89535 z" id="path123860"/>
              <path id="path123862" d="m 110.53492,139.69838 -9.20992,18.2996 3.55968,-20.17488 c 0.37728,-2.63642 2.85566,-4.71753 4.88011,-5.25398 1.30195,1.64048 2.04413,4.79048 0.77013,7.12926 z" style="fill-opacity: 1; fill-rule: evenodd; stroke-width: 0.393573; stroke-linecap: butt; stroke-linejoin: miter; stroke-miterlimit: 4; stroke-dasharray: none; stroke-opacity: 1; paint-order: stroke markers; stroke: rgb(154, 154, 154);"/>
              <path id="path123864" d="m 114.46765,144.77111 -12.9811,13.02103 8.53125,-16.28723 c 1.19874,-2.37338 4.09858,-3.66549 6.08743,-3.62915 0.63084,1.88652 0.26736,5.04033 -1.63758,6.89535 z" style="fill-opacity: 1; fill-rule: evenodd; stroke-width: 0.393573; stroke-linecap: butt; stroke-linejoin: miter; stroke-miterlimit: 4; stroke-dasharray: none; stroke-opacity: 1; paint-order: stroke markers; stroke: rgb(154, 154, 154);"/>
            </g>
            <g style="stroke-width:0.3935726;stroke-miterlimit:4;stroke-dasharray:none" id="g123866" transform="matrix(1,0,0,-1,0,315.24178)">
              <path id="path123868" d="m 92.73415,139.69838 9.20992,18.2996 -3.55968,-20.17488 c -0.377273,-2.63642 -2.855651,-4.71753 -4.88011,-5.25398 -1.301946,1.64048 -2.044122,4.79048 -0.77013,7.12926 z" style="fill-opacity: 1; fill-rule: evenodd; stroke-width: 0.393573; stroke-linecap: butt; stroke-linejoin: miter; stroke-miterlimit: 4; stroke-dasharray: none; stroke-opacity: 1; paint-order: stroke markers; stroke: rgb(154, 154, 154);"/>
              <path id="path123870" d="m 88.801426,144.77111 12.981094,13.02103 -8.531259,-16.28723 c -1.198738,-2.37338 -4.09857,-3.66549 -6.087428,-3.62915 -0.630837,1.88652 -0.267348,5.04033 1.637593,6.89535 z" style="fill-opacity: 1; fill-rule: evenodd; stroke-width: 0.393573; stroke-linecap: butt; stroke-linejoin: miter; stroke-miterlimit: 4; stroke-dasharray: none; stroke-opacity: 1; paint-order: stroke markers; stroke: rgb(154, 154, 154);"/>
              <path style="fill-opacity: 1; fill-rule: evenodd; stroke-width: 0.393573; stroke-linecap: butt; stroke-linejoin: miter; stroke-miterlimit: 4; stroke-dasharray: none; stroke-opacity: 1; paint-order: stroke markers; stroke: rgb(154, 154, 154);" d="m 110.53492,139.69838 -9.20992,18.2996 3.55968,-20.17488 c 0.37728,-2.63642 2.85566,-4.71753 4.88011,-5.25398 1.30195,1.64048 2.04413,4.79048 0.77013,7.12926 z" id="path123872"/>
              <path style="fill-opacity: 1; fill-rule: evenodd; stroke-width: 0.393573; stroke-linecap: butt; stroke-linejoin: miter; stroke-miterlimit: 4; stroke-dasharray: none; stroke-opacity: 1; paint-order: stroke markers; stroke: rgb(154, 154, 154);" d="m 114.46765,144.77111 -12.9811,13.02103 8.53125,-16.28723 c 1.19874,-2.37338 4.09858,-3.66549 6.08743,-3.62915 0.63084,1.88652 0.26736,5.04033 -1.63758,6.89535 z" id="path123874"/>
              <g style="stroke-width:0.3935726;stroke-miterlimit:4;stroke-dasharray:none" id="g123876" transform="matrix(-1,0,0,1,203.26907,0)">
                <path id="path123878" d="m 98.11956,133.6875 3.51497,24.44757 3.51498,-24.44757 c 0.55784,-2.61773 -1.44564,-5.3701 -3.51498,-6.5155 -2.06933,1.1454 -4.072813,3.89777 -3.51497,6.5155 z" style="fill-opacity: 1; fill-rule: evenodd; stroke-width: 0.393573; stroke-linecap: butt; stroke-linejoin: miter; stroke-miterlimit: 4; stroke-dasharray: none; stroke-opacity: 1; paint-order: stroke markers; stroke: rgb(154, 154, 154);"/>
                <path id="path123880" d="m 101.63453,127.172 c -2.06933,1.1454 -4.072813,3.89777 -3.51497,6.5155 l 3.51497,24.44757 z" style="fill-opacity: 1; fill-rule: evenodd; stroke-width: 0.393573; stroke-linecap: butt; stroke-linejoin: miter; stroke-miterlimit: 4; stroke-dasharray: none; stroke-opacity: 1; paint-order: stroke markers; stroke: rgb(154, 154, 154);"/>
                <path id="path123882" d="m 98.11956,133.6875 3.51497,24.44757 3.51498,-24.44757 c 0.55784,-2.61773 -1.44564,-5.3701 -3.51498,-6.5155 -2.06933,1.1454 -4.072813,3.89777 -3.51497,6.5155 z" style="fill-opacity: 1; fill-rule: evenodd; stroke-width: 0.393573; stroke-linecap: butt; stroke-linejoin: miter; stroke-miterlimit: 4; stroke-dasharray: none; stroke-opacity: 1; paint-order: stroke markers; stroke: rgb(154, 154, 154);"/>
              </g>
              <path id="path123884" d="M 101.94407,157.99798 98.38439,137.8231 c -0.377273,-2.63642 -2.855651,-4.71753 -4.88011,-5.25398 z" style="fill-opacity: 1; fill-rule: evenodd; stroke-width: 0.393573; stroke-linecap: butt; stroke-linejoin: miter; stroke-miterlimit: 4; stroke-dasharray: none; stroke-opacity: 1; paint-order: stroke markers; stroke: rgb(154, 154, 154);"/>
              <path id="path123886" d="m 101.78252,157.79214 -8.531259,-16.28723 c -1.198738,-2.37338 -4.09857,-3.66549 -6.087428,-3.62915 z" style="fill-opacity: 1; fill-rule: evenodd; stroke-width: 0.393573; stroke-linecap: butt; stroke-linejoin: miter; stroke-miterlimit: 4; stroke-dasharray: none; stroke-opacity: 1; paint-order: stroke markers; stroke: rgb(154, 154, 154);"/>
              <path style="fill-opacity: 1; fill-rule: evenodd; stroke-width: 0.393573; stroke-linecap: butt; stroke-linejoin: miter; stroke-miterlimit: 4; stroke-dasharray: none; stroke-opacity: 1; paint-order: stroke markers; stroke: rgb(154, 154, 154);" d="m 109.76479,132.56912 c 1.30195,1.64048 2.04413,4.79048 0.77013,7.12926 l -9.20992,18.2996 z" id="path123888"/>
              <path style="fill-opacity: 1; fill-rule: evenodd; stroke-width: 0.393573; stroke-linecap: butt; stroke-linejoin: miter; stroke-miterlimit: 4; stroke-dasharray: none; stroke-opacity: 1; paint-order: stroke markers; stroke: rgb(154, 154, 154);" d="m 116.10523,137.87576 c 0.63084,1.88652 0.26736,5.04033 -1.63758,6.89535 l -12.9811,13.02103 z" id="path123890"/>
              <path id="path123892" d="m 92.73415,139.69838 9.20992,18.2996 -3.55968,-20.17488 c -0.377273,-2.63642 -2.855651,-4.71753 -4.88011,-5.25398 -1.301946,1.64048 -2.044122,4.79048 -0.77013,7.12926 z" style="fill-opacity: 1; fill-rule: evenodd; stroke-width: 0.393573; stroke-linecap: butt; stroke-linejoin: miter; stroke-miterlimit: 4; stroke-dasharray: none; stroke-opacity: 1; paint-order: stroke markers; stroke: rgb(154, 154, 154);"/>
              <path id="path123894" d="m 88.801426,144.77111 12.981094,13.02103 -8.531259,-16.28723 c -1.198738,-2.37338 -4.09857,-3.66549 -6.087428,-3.62915 -0.630837,1.88652 -0.267348,5.04033 1.637593,6.89535 z" style="fill-opacity: 1; fill-rule: evenodd; stroke-width: 0.393573; stroke-linecap: butt; stroke-linejoin: miter; stroke-miterlimit: 4; stroke-dasharray: none; stroke-opacity: 1; paint-order: stroke markers; stroke: rgb(154, 154, 154);"/>
              <path style="fill-opacity: 1; fill-rule: evenodd; stroke-width: 0.393573; stroke-linecap: butt; stroke-linejoin: miter; stroke-miterlimit: 4; stroke-dasharray: none; stroke-opacity: 1; paint-order: stroke markers; stroke: rgb(154, 154, 154);" d="m 110.53492,139.69838 -9.20992,18.2996 3.55968,-20.17488 c 0.37728,-2.63642 2.85566,-4.71753 4.88011,-5.25398 1.30195,1.64048 2.04413,4.79048 0.77013,7.12926 z" id="path123896"/>
              <path style="fill-opacity: 1; fill-rule: evenodd; stroke-width: 0.393573; stroke-linecap: butt; stroke-linejoin: miter; stroke-miterlimit: 4; stroke-dasharray: none; stroke-opacity: 1; paint-order: stroke markers; stroke: rgb(154, 154, 154);" d="m 114.46765,144.77111 -12.9811,13.02103 8.53125,-16.28723 c 1.19874,-2.37338 4.09858,-3.66549 6.08743,-3.62915 0.63084,1.88652 0.26736,5.04033 -1.63758,6.89535 z" id="path123898"/>
            </g>
          </g>
          <g style="stroke-width:0.3935726;stroke-miterlimit:4;stroke-dasharray:none" transform="matrix(0,0.50816547,-0.50816547,0,177.27575,118.45234)" id="g123900">
            <g style="stroke-width:0.3935726;stroke-miterlimit:4;stroke-dasharray:none" id="g123902">
              <path id="path123904" d="m 92.73415,139.69838 9.20992,18.2996 -3.55968,-20.17488 c -0.377273,-2.63642 -2.855651,-4.71753 -4.88011,-5.25398 -1.301946,1.64048 -2.044122,4.79048 -0.77013,7.12926 z" style="fill-opacity: 1; fill-rule: evenodd; stroke-width: 0.393573; stroke-linecap: butt; stroke-linejoin: miter; stroke-miterlimit: 4; stroke-dasharray: none; stroke-opacity: 1; paint-order: stroke markers; stroke: rgb(154, 154, 154);"/>
              <path id="path123906" d="m 88.801426,144.77111 12.981094,13.02103 -8.531259,-16.28723 c -1.198738,-2.37338 -4.09857,-3.66549 -6.087428,-3.62915 -0.630837,1.88652 -0.267348,5.04033 1.637593,6.89535 z" style="fill-opacity: 1; fill-rule: evenodd; stroke-width: 0.393573; stroke-linecap: butt; stroke-linejoin: miter; stroke-miterlimit: 4; stroke-dasharray: none; stroke-opacity: 1; paint-order: stroke markers; stroke: rgb(154, 154, 154);"/>
              <path style="fill-opacity: 1; fill-rule: evenodd; stroke-width: 0.393573; stroke-linecap: butt; stroke-linejoin: miter; stroke-miterlimit: 4; stroke-dasharray: none; stroke-opacity: 1; paint-order: stroke markers; stroke: rgb(154, 154, 154);" d="m 110.53492,139.69838 -9.20992,18.2996 3.55968,-20.17488 c 0.37728,-2.63642 2.85566,-4.71753 4.88011,-5.25398 1.30195,1.64048 2.04413,4.79048 0.77013,7.12926 z" id="path123908"/>
              <path style="fill-opacity: 1; fill-rule: evenodd; stroke-width: 0.393573; stroke-linecap: butt; stroke-linejoin: miter; stroke-miterlimit: 4; stroke-dasharray: none; stroke-opacity: 1; paint-order: stroke markers; stroke: rgb(154, 154, 154);" d="m 114.46765,144.77111 -12.9811,13.02103 8.53125,-16.28723 c 1.19874,-2.37338 4.09858,-3.66549 6.08743,-3.62915 0.63084,1.88652 0.26736,5.04033 -1.63758,6.89535 z" id="path123910"/>
              <g style="stroke-width:0.3935726;stroke-miterlimit:4;stroke-dasharray:none" id="g123912" transform="matrix(-1,0,0,1,203.26907,0)">
                <path id="path123914" d="m 98.11956,133.6875 3.51497,24.44757 3.51498,-24.44757 c 0.55784,-2.61773 -1.44564,-5.3701 -3.51498,-6.5155 -2.06933,1.1454 -4.072813,3.89777 -3.51497,6.5155 z" style="fill-opacity: 1; fill-rule: evenodd; stroke-width: 0.393573; stroke-linecap: butt; stroke-linejoin: miter; stroke-miterlimit: 4; stroke-dasharray: none; stroke-opacity: 1; paint-order: stroke markers; stroke: rgb(154, 154, 154);"/>
                <path id="path123916" d="m 101.63453,127.172 c -2.06933,1.1454 -4.072813,3.89777 -3.51497,6.5155 l 3.51497,24.44757 z" style="fill-opacity: 1; fill-rule: evenodd; stroke-width: 0.393573; stroke-linecap: butt; stroke-linejoin: miter; stroke-miterlimit: 4; stroke-dasharray: none; stroke-opacity: 1; paint-order: stroke markers; stroke: rgb(154, 154, 154);"/>
                <path id="path123918" d="m 98.11956,133.6875 3.51497,24.44757 3.51498,-24.44757 c 0.55784,-2.61773 -1.44564,-5.3701 -3.51498,-6.5155 -2.06933,1.1454 -4.072813,3.89777 -3.51497,6.5155 z" style="fill-opacity: 1; fill-rule: evenodd; stroke-width: 0.393573; stroke-linecap: butt; stroke-linejoin: miter; stroke-miterlimit: 4; stroke-dasharray: none; stroke-opacity: 1; paint-order: stroke markers; stroke: rgb(154, 154, 154);"/>
              </g>
              <path id="path123920" d="M 101.94407,157.99798 98.38439,137.8231 c -0.377273,-2.63642 -2.855651,-4.71753 -4.88011,-5.25398 z" style="fill-opacity: 1; fill-rule: evenodd; stroke-width: 0.393573; stroke-linecap: butt; stroke-linejoin: miter; stroke-miterlimit: 4; stroke-dasharray: none; stroke-opacity: 1; paint-order: stroke markers; stroke: rgb(154, 154, 154);"/>
              <path id="path123922" d="m 101.78252,157.79214 -8.531259,-16.28723 c -1.198738,-2.37338 -4.09857,-3.66549 -6.087428,-3.62915 z" style="fill-opacity: 1; fill-rule: evenodd; stroke-width: 0.393573; stroke-linecap: butt; stroke-linejoin: miter; stroke-miterlimit: 4; stroke-dasharray: none; stroke-opacity: 1; paint-order: stroke markers; stroke: rgb(154, 154, 154);"/>
              <path style="fill-opacity: 1; fill-rule: evenodd; stroke-width: 0.393573; stroke-linecap: butt; stroke-linejoin: miter; stroke-miterlimit: 4; stroke-dasharray: none; stroke-opacity: 1; paint-order: stroke markers; stroke: rgb(154, 154, 154);" d="m 109.76479,132.56912 c 1.30195,1.64048 2.04413,4.79048 0.77013,7.12926 l -9.20992,18.2996 z" id="path123924"/>
              <path style="fill-opacity: 1; fill-rule: evenodd; stroke-width: 0.393573; stroke-linecap: butt; stroke-linejoin: miter; stroke-miterlimit: 4; stroke-dasharray: none; stroke-opacity: 1; paint-order: stroke markers; stroke: rgb(154, 154, 154);" d="m 116.10523,137.87576 c 0.63084,1.88652 0.26736,5.04033 -1.63758,6.89535 l -12.9811,13.02103 z" id="path123926"/>
              <path id="path123928" d="m 92.73415,139.69838 9.20992,18.2996 -3.55968,-20.17488 c -0.377273,-2.63642 -2.855651,-4.71753 -4.88011,-5.25398 -1.301946,1.64048 -2.044122,4.79048 -0.77013,7.12926 z" style="fill-opacity: 1; fill-rule: evenodd; stroke-width: 0.393573; stroke-linecap: butt; stroke-linejoin: miter; stroke-miterlimit: 4; stroke-dasharray: none; stroke-opacity: 1; paint-order: stroke markers; stroke: rgb(154, 154, 154);"/>
              <path id="path123930" d="m 88.801426,144.77111 12.981094,13.02103 -8.531259,-16.28723 c -1.198738,-2.37338 -4.09857,-3.66549 -6.087428,-3.62915 -0.630837,1.88652 -0.267348,5.04033 1.637593,6.89535 z" style="fill-opacity: 1; fill-rule: evenodd; stroke-width: 0.393573; stroke-linecap: butt; stroke-linejoin: miter; stroke-miterlimit: 4; stroke-dasharray: none; stroke-opacity: 1; paint-order: stroke markers; stroke: rgb(154, 154, 154);"/>
              <path style="fill-opacity: 1; fill-rule: evenodd; stroke-width: 0.393573; stroke-linecap: butt; stroke-linejoin: miter; stroke-miterlimit: 4; stroke-dasharray: none; stroke-opacity: 1; paint-order: stroke markers; stroke: rgb(154, 154, 154);" d="m 110.53492,139.69838 -9.20992,18.2996 3.55968,-20.17488 c 0.37728,-2.63642 2.85566,-4.71753 4.88011,-5.25398 1.30195,1.64048 2.04413,4.79048 0.77013,7.12926 z" id="path123932"/>
              <path style="fill-opacity: 1; fill-rule: evenodd; stroke-width: 0.393573; stroke-linecap: butt; stroke-linejoin: miter; stroke-miterlimit: 4; stroke-dasharray: none; stroke-opacity: 1; paint-order: stroke markers; stroke: rgb(154, 154, 154);" d="m 114.46765,144.77111 -12.9811,13.02103 8.53125,-16.28723 c 1.19874,-2.37338 4.09858,-3.66549 6.08743,-3.62915 0.63084,1.88652 0.26736,5.04033 -1.63758,6.89535 z" id="path123934"/>
            </g>
            <g style="stroke-width:0.3935726;stroke-miterlimit:4;stroke-dasharray:none" transform="matrix(1,0,0,-1,0,315.24178)" id="g123936">
              <path style="fill-opacity: 1; fill-rule: evenodd; stroke-width: 0.393573; stroke-linecap: butt; stroke-linejoin: miter; stroke-miterlimit: 4; stroke-dasharray: none; stroke-opacity: 1; paint-order: stroke markers; stroke: rgb(154, 154, 154);" d="m 92.73415,139.69838 9.20992,18.2996 -3.55968,-20.17488 c -0.377273,-2.63642 -2.855651,-4.71753 -4.88011,-5.25398 -1.301946,1.64048 -2.044122,4.79048 -0.77013,7.12926 z" id="path123938"/>
              <path style="fill-opacity: 1; fill-rule: evenodd; stroke-width: 0.393573; stroke-linecap: butt; stroke-linejoin: miter; stroke-miterlimit: 4; stroke-dasharray: none; stroke-opacity: 1; paint-order: stroke markers; stroke: rgb(154, 154, 154);" d="m 88.801426,144.77111 12.981094,13.02103 -8.531259,-16.28723 c -1.198738,-2.37338 -4.09857,-3.66549 -6.087428,-3.62915 -0.630837,1.88652 -0.267348,5.04033 1.637593,6.89535 z" id="path123940"/>
              <path id="path123942" d="m 110.53492,139.69838 -9.20992,18.2996 3.55968,-20.17488 c 0.37728,-2.63642 2.85566,-4.71753 4.88011,-5.25398 1.30195,1.64048 2.04413,4.79048 0.77013,7.12926 z" style="fill-opacity: 1; fill-rule: evenodd; stroke-width: 0.393573; stroke-linecap: butt; stroke-linejoin: miter; stroke-miterlimit: 4; stroke-dasharray: none; stroke-opacity: 1; paint-order: stroke markers; stroke: rgb(154, 154, 154);"/>
              <path id="path123944" d="m 114.46765,144.77111 -12.9811,13.02103 8.53125,-16.28723 c 1.19874,-2.37338 4.09858,-3.66549 6.08743,-3.62915 0.63084,1.88652 0.26736,5.04033 -1.63758,6.89535 z" style="fill-opacity: 1; fill-rule: evenodd; stroke-width: 0.393573; stroke-linecap: butt; stroke-linejoin: miter; stroke-miterlimit: 4; stroke-dasharray: none; stroke-opacity: 1; paint-order: stroke markers; stroke: rgb(154, 154, 154);"/>
              <g style="stroke-width:0.3935726;stroke-miterlimit:4;stroke-dasharray:none" transform="matrix(-1,0,0,1,203.26907,0)" id="g123946">
                <path style="fill-opacity: 1; fill-rule: evenodd; stroke-width: 0.393573; stroke-linecap: butt; stroke-linejoin: miter; stroke-miterlimit: 4; stroke-dasharray: none; stroke-opacity: 1; paint-order: stroke markers; stroke: rgb(154, 154, 154);" d="m 98.11956,133.6875 3.51497,24.44757 3.51498,-24.44757 c 0.55784,-2.61773 -1.44564,-5.3701 -3.51498,-6.5155 -2.06933,1.1454 -4.072813,3.89777 -3.51497,6.5155 z" id="path123948"/>
                <path style="fill-opacity: 1; fill-rule: evenodd; stroke-width: 0.393573; stroke-linecap: butt; stroke-linejoin: miter; stroke-miterlimit: 4; stroke-dasharray: none; stroke-opacity: 1; paint-order: stroke markers; stroke: rgb(154, 154, 154);" d="m 101.63453,127.172 c -2.06933,1.1454 -4.072813,3.89777 -3.51497,6.5155 l 3.51497,24.44757 z" id="path123950"/>
                <path style="fill-opacity: 1; fill-rule: evenodd; stroke-width: 0.393573; stroke-linecap: butt; stroke-linejoin: miter; stroke-miterlimit: 4; stroke-dasharray: none; stroke-opacity: 1; paint-order: stroke markers; stroke: rgb(154, 154, 154);" d="m 98.11956,133.6875 3.51497,24.44757 3.51498,-24.44757 c 0.55784,-2.61773 -1.44564,-5.3701 -3.51498,-6.5155 -2.06933,1.1454 -4.072813,3.89777 -3.51497,6.5155 z" id="path123952"/>
              </g>
              <path style="fill-opacity: 1; fill-rule: evenodd; stroke-width: 0.393573; stroke-linecap: butt; stroke-linejoin: miter; stroke-miterlimit: 4; stroke-dasharray: none; stroke-opacity: 1; paint-order: stroke markers; stroke: rgb(154, 154, 154);" d="M 101.94407,157.99798 98.38439,137.8231 c -0.377273,-2.63642 -2.855651,-4.71753 -4.88011,-5.25398 z" id="path123954"/>
              <path style="fill-opacity: 1; fill-rule: evenodd; stroke-width: 0.393573; stroke-linecap: butt; stroke-linejoin: miter; stroke-miterlimit: 4; stroke-dasharray: none; stroke-opacity: 1; paint-order: stroke markers; stroke: rgb(154, 154, 154);" d="m 101.78252,157.79214 -8.531259,-16.28723 c -1.198738,-2.37338 -4.09857,-3.66549 -6.087428,-3.62915 z" id="path123956"/>
              <path id="path123958" d="m 109.76479,132.56912 c 1.30195,1.64048 2.04413,4.79048 0.77013,7.12926 l -9.20992,18.2996 z" style="fill-opacity: 1; fill-rule: evenodd; stroke-width: 0.393573; stroke-linecap: butt; stroke-linejoin: miter; stroke-miterlimit: 4; stroke-dasharray: none; stroke-opacity: 1; paint-order: stroke markers; stroke: rgb(154, 154, 154);"/>
              <path id="path123960" d="m 116.10523,137.87576 c 0.63084,1.88652 0.26736,5.04033 -1.63758,6.89535 l -12.9811,13.02103 z" style="fill-opacity: 1; fill-rule: evenodd; stroke-width: 0.393573; stroke-linecap: butt; stroke-linejoin: miter; stroke-miterlimit: 4; stroke-dasharray: none; stroke-opacity: 1; paint-order: stroke markers; stroke: rgb(154, 154, 154);"/>
              <path style="fill-opacity: 1; fill-rule: evenodd; stroke-width: 0.393573; stroke-linecap: butt; stroke-linejoin: miter; stroke-miterlimit: 4; stroke-dasharray: none; stroke-opacity: 1; paint-order: stroke markers; stroke: rgb(154, 154, 154);" d="m 92.73415,139.69838 9.20992,18.2996 -3.55968,-20.17488 c -0.377273,-2.63642 -2.855651,-4.71753 -4.88011,-5.25398 -1.301946,1.64048 -2.044122,4.79048 -0.77013,7.12926 z" id="path123962"/>
              <path style="fill-opacity: 1; fill-rule: evenodd; stroke-width: 0.393573; stroke-linecap: butt; stroke-linejoin: miter; stroke-miterlimit: 4; stroke-dasharray: none; stroke-opacity: 1; paint-order: stroke markers; stroke: rgb(154, 154, 154);" d="m 88.801426,144.77111 12.981094,13.02103 -8.531259,-16.28723 c -1.198738,-2.37338 -4.09857,-3.66549 -6.087428,-3.62915 -0.630837,1.88652 -0.267348,5.04033 1.637593,6.89535 z" id="path123964"/>
              <path id="path123966" d="m 110.53492,139.69838 -9.20992,18.2996 3.55968,-20.17488 c 0.37728,-2.63642 2.85566,-4.71753 4.88011,-5.25398 1.30195,1.64048 2.04413,4.79048 0.77013,7.12926 z" style="fill-opacity: 1; fill-rule: evenodd; stroke-width: 0.393573; stroke-linecap: butt; stroke-linejoin: miter; stroke-miterlimit: 4; stroke-dasharray: none; stroke-opacity: 1; paint-order: stroke markers; stroke: rgb(154, 154, 154);"/>
              <path id="path123968" d="m 114.46765,144.77111 -12.9811,13.02103 8.53125,-16.28723 c 1.19874,-2.37338 4.09858,-3.66549 6.08743,-3.62915 0.63084,1.88652 0.26736,5.04033 -1.63758,6.89535 z" style="fill-opacity: 1; fill-rule: evenodd; stroke-width: 0.393573; stroke-linecap: butt; stroke-linejoin: miter; stroke-miterlimit: 4; stroke-dasharray: none; stroke-opacity: 1; paint-order: stroke markers; stroke: rgb(154, 154, 154);"/>
            </g>
          </g>
        </g>
        <g id="g123970" transform="translate(1.920182e-4,-6.4390497e-4)">
          <g style="stroke-width:0.41262814;stroke-miterlimit:4;stroke-dasharray:none" id="g123972" transform="matrix(0.48469791,0,0,0.48469791,47.582063,93.390662)">
            <g style="stroke-width:0.41262814;stroke-miterlimit:4;stroke-dasharray:none" id="g123974">
              <path style="fill-opacity: 1; fill-rule: evenodd; stroke-width: 0.412628; stroke-linecap: butt; stroke-linejoin: miter; stroke-miterlimit: 4; stroke-dasharray: none; stroke-opacity: 1; paint-order: stroke markers; stroke: rgb(154, 154, 154);" d="m 99.389615,159.16623 -18.132155,7.34325 0,-8.24703 0,-8.24702 18.132155,7.34325 z" id="path123976"/>
              <path style="fill-opacity: 1; fill-rule: evenodd; stroke-width: 0.412628; stroke-linecap: butt; stroke-linejoin: miter; stroke-miterlimit: 4; stroke-dasharray: none; stroke-opacity: 1; paint-order: stroke markers; stroke: rgb(154, 154, 154);" d="m 83.064453,152.69727 0,5.56445 0,5.5664 13.738281,-5.5664 -13.738281,-5.56445 z" id="path123978"/>
            </g>
            <g style="stroke-width:0.41262814;stroke-miterlimit:4;stroke-dasharray:none" transform="matrix(-1,0,0,1,204.64708,0)" id="g123980">
              <path id="path123982" d="m 99.389615,159.16623 -18.132155,7.34325 0,-8.24703 0,-8.24702 18.132155,7.34325 z" style="fill-opacity: 1; fill-rule: evenodd; stroke-width: 0.412628; stroke-linecap: butt; stroke-linejoin: miter; stroke-miterlimit: 4; stroke-dasharray: none; stroke-opacity: 1; paint-order: stroke markers; stroke: rgb(154, 154, 154);"/>
              <path id="path123984" d="m 83.064453,152.69727 0,5.56445 0,5.5664 13.738281,-5.5664 -13.738281,-5.56445 z" style="fill-opacity: 1; fill-rule: evenodd; stroke-width: 0.412628; stroke-linecap: butt; stroke-linejoin: miter; stroke-miterlimit: 4; stroke-dasharray: none; stroke-opacity: 1; paint-order: stroke markers; stroke: rgb(154, 154, 154);"/>
            </g>
          </g>
          <g style="stroke-width:0.41262814;stroke-miterlimit:4;stroke-dasharray:none" transform="matrix(0,0.48469791,-0.48469791,0,173.88755,120.50414)" id="g123986">
            <g style="stroke-width:0.41262814;stroke-miterlimit:4;stroke-dasharray:none" id="g123988">
              <path id="path123990" d="m 99.389615,159.16623 -18.132155,7.34325 0,-8.24703 0,-8.24702 18.132155,7.34325 z" style="fill-opacity: 1; fill-rule: evenodd; stroke-width: 0.412628; stroke-linecap: butt; stroke-linejoin: miter; stroke-miterlimit: 4; stroke-dasharray: none; stroke-opacity: 1; paint-order: stroke markers; stroke: rgb(154, 154, 154);"/>
              <path id="path123992" d="m 83.064453,152.69727 0,5.56445 0,5.5664 13.738281,-5.5664 -13.738281,-5.56445 z" style="fill-opacity: 1; fill-rule: evenodd; stroke-width: 0.412628; stroke-linecap: butt; stroke-linejoin: miter; stroke-miterlimit: 4; stroke-dasharray: none; stroke-opacity: 1; paint-order: stroke markers; stroke: rgb(154, 154, 154);"/>
            </g>
            <g style="stroke-width:0.41262814;stroke-miterlimit:4;stroke-dasharray:none" id="g123994" transform="matrix(-1,0,0,1,204.64708,0)">
              <path style="fill-opacity: 1; fill-rule: evenodd; stroke-width: 0.412628; stroke-linecap: butt; stroke-linejoin: miter; stroke-miterlimit: 4; stroke-dasharray: none; stroke-opacity: 1; paint-order: stroke markers; stroke: rgb(154, 154, 154);" d="m 99.389615,159.16623 -18.132155,7.34325 0,-8.24703 0,-8.24702 18.132155,7.34325 z" id="path123996"/>
              <path style="fill-opacity: 1; fill-rule: evenodd; stroke-width: 0.412628; stroke-linecap: butt; stroke-linejoin: miter; stroke-miterlimit: 4; stroke-dasharray: none; stroke-opacity: 1; paint-order: stroke markers; stroke: rgb(154, 154, 154);" d="m 83.064453,152.69727 0,5.56445 0,5.5664 13.738281,-5.5664 -13.738281,-5.56445 z" id="path123998"/>
            </g>
          </g>
          <g style="stroke-width:0.41262814;stroke-miterlimit:4;stroke-dasharray:none" id="g124000" transform="matrix(0.48469791,0,0,0.48469791,47.000494,93.50516)">
            <path id="circle124002" d="M 121.07015,158.02623 A 17.546751,17.546751 0 0 1 103.5234,175.57298 17.546751,17.546751 0 0 1 85.976648,158.02623 17.546751,17.546751 0 0 1 103.5234,140.47948 17.546751,17.546751 0 0 1 121.07015,158.02623 Z" style="fill-opacity: 1; stroke-width: 0.412628; stroke-linejoin: miter; stroke-miterlimit: 4; stroke-dasharray: none; stroke-opacity: 1; paint-order: stroke markers; stroke: rgb(154, 154, 154);"/>
            <g style="stroke-width:0.41262814;stroke-miterlimit:4;stroke-dasharray:none" transform="translate(0.15621035,-0.27260014)" id="g124004">
              <g style="stroke-width:0.41262814;stroke-miterlimit:4;stroke-dasharray:none" id="g124010">
                <g style="stroke-width:0.41262814;stroke-miterlimit:4;stroke-dasharray:none" transform="translate(7.5668945e-6,7.7851074e-4)" id="g124012">
                  <g style="stroke-width:0.41262814;stroke-miterlimit:4;stroke-dasharray:none" id="g124016" transform="translate(-7.5454292e-6,0)">
                    <g style="stroke-width:0.41262814;stroke-miterlimit:4;stroke-dasharray:none" id="g124018"/>
                    <g transform="translate(-2.923332,-4.5894596)" id="g124024" style="stroke-width:0.41262814;stroke-miterlimit:4;stroke-dasharray:none"/>
                    <g style="stroke-width:0.41262814;stroke-miterlimit:4;stroke-dasharray:none" id="g124030" transform="translate(2.9233297,-4.5894596)"/>
                  </g>
                </g>
              </g>
            </g>
          </g>
          <g style="stroke-width:0.41262814;stroke-miterlimit:4;stroke-dasharray:none" id="g124040" transform="matrix(0.48469791,0,0,0.48469791,47.562738,93.547473)">
            <g style="stroke-width:0.41262814;stroke-miterlimit:4;stroke-dasharray:none" transform="translate(0,0.0474213)" id="g124042"/>
            <g style="stroke-width:0.41262814;stroke-miterlimit:4;stroke-dasharray:none" transform="matrix(-1,0,0,1,204.72682,0.04742129)" id="g124076"/>
          </g>
        </g>
      </g>
    </g>
  </g>
</svg>